HIERARCHY
ROOT Hips
{
    OFFSET 0.000000 0.000000 0.000000
    CHANNELS 6 Xposition Yposition Zposition Zrotation Xrotation Yrotation
    JOINT Spine
    {
        OFFSET -0.000000 0.083210 0.000000
        CHANNELS 3 Zrotation Xrotation Yrotation
        JOINT Spine1
        {
            OFFSET -0.000000 0.256334 0.000000
            CHANNELS 3 Zrotation Xrotation Yrotation
            JOINT Neck
            {
                OFFSET -0.000000 0.255281 0.023207
                CHANNELS 3 Zrotation Xrotation Yrotation
                JOINT Head
                {
                    OFFSET -0.000000 0.142065 -0.020295
                    CHANNELS 3 Zrotation Xrotation Yrotation
                    End Site
                    {
                        OFFSET -0.000000 0.202951 0.000000
                    }
                }
            }
            JOINT LeftShoulder
            {
                OFFSET 0.041044 0.235234 -0.000041
                CHANNELS 3 Zrotation Xrotation Yrotation
                JOINT LeftArm
                {
                    OFFSET 0.117964 0.000000 0.000000
                    CHANNELS 3 Zrotation Xrotation Yrotation
                    JOINT LeftForeArm
                    {
                        OFFSET 0.291248 0.000000 0.000000
                        CHANNELS 3 Zrotation Xrotation Yrotation
                        JOINT LeftHand
                        {
                            OFFSET 0.245673 0.000000 0.000000
                            CHANNELS 3 Zrotation Xrotation Yrotation
                            End Site
                            {
                                OFFSET 0.152213 0.000000 0.000000
                            }
                        }
                    }
                }
            }
            JOINT RightShoulder
            {
                OFFSET -0.040052 0.235234 -0.000041
                CHANNELS 3 Zrotation Xrotation Yrotation
                JOINT RightArm
                {
                    OFFSET -0.117964 0.000000 0.000000
                    CHANNELS 3 Zrotation Xrotation Yrotation
                    JOINT RightForeArm
                    {
                        OFFSET -0.291248 0.000000 0.000000
                        CHANNELS 3 Zrotation Xrotation Yrotation
                        JOINT RightHand
                        {
                            OFFSET -0.245673 0.000000 0.000000
                            CHANNELS 3 Zrotation Xrotation Yrotation
                            End Site
                            {
                                OFFSET -0.152213 0.000000 0.000000
                            }
                        }
                    }
                }
            }
        }
    }
    JOINT LeftUpLeg
    {
        OFFSET 0.101475 0.000000 0.000000
        CHANNELS 3 Zrotation Xrotation Yrotation
        JOINT LeftLeg
        {
            OFFSET -0.000000 -0.446535 0.000000
            CHANNELS 3 Zrotation Xrotation Yrotation
            JOINT LeftFoot
            {
                OFFSET -0.000000 -0.400037 0.000000
                CHANNELS 3 Zrotation Xrotation Yrotation
                JOINT LeftToeBase
                {
                    OFFSET -0.000000 -0.065959 0.152213
                    CHANNELS 3 Zrotation Xrotation Yrotation
                    End Site
                    {
                        OFFSET -0.000000 0.000000 0.040590
                    }
                }
            }
        }
    }
    JOINT RightUpLeg
    {
        OFFSET -0.101475 0.000000 0.000000
        CHANNELS 3 Zrotation Xrotation Yrotation
        JOINT RightLeg
        {
            OFFSET -0.000000 -0.446535 0.000000
            CHANNELS 3 Zrotation Xrotation Yrotation
            JOINT RightFoot
            {
                OFFSET -0.000000 -0.400037 0.000000
                CHANNELS 3 Zrotation Xrotation Yrotation
                JOINT RightToeBase
                {
                    OFFSET -0.000000 -0.065959 0.152213
                    CHANNELS 3 Zrotation Xrotation Yrotation
                    End Site
                    {
                        OFFSET -0.000000 0.000000 0.040590
                    }
                }
            }
        }
    }
}
MOTION
Frames:    10
Frame Time:    0.008333
0.509397    0.870866    0.414442    -4.376790    2.632045    -94.731644    -1.981973    3.169747    -0.416938    -0.109113    -3.063951    -0.160299    3.255238    13.667316    1.190017    4.061311    -3.162711    1.848882    43.369167    -15.953584    11.226655    0.785405    -13.244725    -22.148842    59.959030    -34.704029    -49.550423    14.377577    -5.363969    3.242548    -31.354008    -11.882608    -3.791192    -5.256556    -8.804041    15.035512    -54.740395    -40.704739    43.365303    -9.135591    -19.500820    -10.247586    22.067329    -2.198121    -17.735874    1.579248    34.005726    -6.393409    -21.736168    -22.786957    -7.049877    -0.020592    -4.987213    0.484783    -21.517622    -3.177097    20.508785    -0.696007    35.238190    12.548968    24.446066    -19.302937    -9.679242    -0.376649    -14.891628    -2.417415    
0.510733    0.857953    0.414225    -4.989525    2.658269    -94.385323    -1.793936    4.545728    -0.574698    -0.423197    -3.415741    -0.228283    3.344537    12.730072    1.234299    4.296987    -3.283440    1.908035    45.008781    -16.407393    11.658969    0.426054    -14.250591    -23.309332    60.861626    -35.330509    -49.658852    17.142817    -5.345464    3.370314    -33.074932    -12.528914    -4.622039    -4.923995    -8.275789    15.536335    -56.839470    -43.722031    44.125675    -10.883458    -21.724745    -9.429973    22.096855    -2.599114    -15.731616    3.025234    36.313328    -9.742783    -21.845156    -26.375519    -6.637010    0.009182    -2.516378    -0.143470    -21.560905    -3.039241    20.204800    -1.164148    37.235733    15.120425    24.268141    -23.236984    -10.696038    -0.311233    -13.120195    -2.219646    
0.511849    0.846296    0.413740    -5.650508    2.539035    -93.935104    -1.787897    5.883882    -0.739092    -0.469940    -3.692825    -0.292396    2.759645    11.664152    1.213441    4.912589    -3.204258    1.980435    45.731369    -17.175480    11.592647    0.410832    -15.000244    -24.109928    61.357384    -35.977562    -49.646858    20.099066    -5.623380    3.949011    -35.431404    -13.414190    -5.761902    -3.719681    -7.926687    16.346773    -59.007725    -45.835289    44.956291    -12.280873    -22.680958    -9.794834    21.992029    -2.997859    -13.570436    4.936640    38.381947    -13.562761    -21.663260    -29.410313    -6.297599    0.029163    -0.683638    -0.364848    -21.782961    -2.826861    18.316696    -2.405090    39.137806    18.744947    23.417915    -26.479839    -11.962712    -0.204702    -12.091897    -1.560439    
0.513937    0.837666    0.413262    -5.706985    2.174913    -93.321358    -2.014998    6.568304    -1.032164    -0.391199    -3.931742    -0.396108    1.913362    10.487000    1.149566    5.656619    -2.763832    2.035243    45.833694    -18.046135    11.210348    0.411070    -15.636509    -24.696039    61.790451    -36.687057    -49.418575    20.971527    -6.178948    4.901955    -37.905354    -14.338706    -6.951513    -1.828108    -8.016082    17.332380    -61.437710    -46.749001    45.357990    -12.266883    -22.233761    -10.567457    21.729048    -4.057417    -12.010816    6.587780    39.908264    -16.310389    -21.993521    -31.037434    -6.722867    0.049433    0.258826    -0.561104    -22.317408    -3.092443    15.846271    -3.372753    40.618542    19.424458    23.381037    -27.998857    -10.737061    -0.130341    -11.019546    -1.070308    
0.516879    0.833037    0.412508    -4.893590    1.968673    -92.660378    -2.050924    6.189555    -1.391818    -0.702860    -4.177850    -0.526585    2.189996    9.940601    1.081807    5.669075    -2.455239    1.926068    46.339134    -18.720018    10.660622    -0.333049    -16.536413    -25.750931    61.347816    -37.071743    -49.649227    23.471533    -6.464401    5.870344    -38.568161    -15.129555    -7.166558    -0.872469    -8.284027    17.779934    -63.252911    -47.015545    45.406742    -13.210587    -21.369707    -11.313920    21.578676    -6.023554    -10.948272    8.063421    41.175812    -18.467676    -22.600925    -31.605116    -7.303192    0.061566    0.283235    -0.697138    -22.609373    -4.004291    13.127597    -4.144504    41.505642    19.748642    23.232992    -28.744772    -9.852083    -0.073256    -10.128063    -0.642749    
0.518907    0.831075    0.411790    -4.218341    1.856701    -92.078392    -2.032622    5.641213    -1.710418    -1.128302    -4.220262    -0.645021    2.773916    9.851444    1.030952    5.567041    -2.384169    1.816314    46.248596    -19.223547    9.829551    -0.937433    -17.570435    -26.968550    60.753693    -37.097160    -49.665833    25.764256    -6.469857    7.136701    -38.075886    -15.675953    -6.769694    -0.393686    -8.800718    17.987444    -64.462845    -46.770546    45.240654    -14.262733    -20.249012    -12.205483    21.404896    -7.630904    -11.595088    8.317928    42.204918    -18.139326    -23.625441    -31.246832    -8.336323    0.064072    -0.095353    -0.753494    -22.853998    -4.571667    11.394073    -4.209800    41.864502    19.328062    23.176281    -29.025522    -9.344778    -0.013922    -9.557633    -0.127742    
0.519840    0.831449    0.410957    -3.985380    1.886661    -91.596115    -2.037774    5.379291    -1.999228    -1.299902    -4.062354    -0.744318    3.166314    9.630428    1.027653    5.577656    -2.196364    1.775888    46.080109    -19.858511    9.209614    -2.131510    -18.180216    -28.123865    60.055626    -37.238480    -49.691582    25.926147    -6.854718    8.114235    -37.288326    -16.176222    -6.252316    0.168410    -9.307428    18.175720    -64.780731    -46.372921    44.996910    -14.957144    -19.573023    -12.662252    21.321892    -8.551358    -12.999278    7.797720    42.951267    -17.251095    -24.028431    -30.595701    -8.539222    0.060854    -0.956517    -0.784541    -22.915043    -4.536226    10.589075    -3.915417    41.709213    18.072517    23.458385    -28.608364    -8.516266    0.021233    -9.261608    0.199566    
0.519957    0.833782    0.410081    -4.000288    1.991840    -91.270004    -2.070631    5.280612    -2.186100    -1.264103    -3.850876    -0.802841    3.225649    9.445568    1.018718    5.838634    -2.051695    1.792511    45.455730    -20.318275    8.458349    -3.289975    -18.582647    -28.881174    58.900185    -37.524250    -49.847702    26.022564    -7.496239    9.636585    -36.525089    -16.705978    -5.548825    0.982047    -9.305659    18.053095    -64.826263    -45.907921    44.220993    -15.334259    -19.418066    -12.953939    21.316952    -8.904061    -14.307140    7.044141    43.246529    -16.286533    -23.978987    -29.736187    -8.198942    0.058716    -1.871940    -0.843408    -22.812775    -4.241416    10.156895    -3.794672    41.295181    17.470175    23.610895    -27.898064    -8.064201    0.021618    -9.423313    0.200526    
0.519546    0.837593    0.408995    -4.113105    2.182985    -91.118912    -2.078418    5.180954    -2.227222    -1.165517    -3.615207    -0.810411    3.261699    9.417885    0.983576    6.020256    -1.973344    1.778069    44.424877    -20.530079    7.464582    -4.164971    -18.818661    -29.203688    57.424133    -37.790031    -50.008217    26.865627    -8.191939    11.323345    -35.465553    -16.829021    -4.604908    1.681729    -9.375072    17.584663    -63.896255    -45.424332    43.570530    -16.615620    -19.556177    -13.500536    21.499649    -8.816236    -15.281394    6.134991    43.017349    -14.908065    -23.716160    -28.526369    -7.938630    0.050062    -2.770644    -0.810062    -22.564379    -3.866337    10.036483    -3.751802    40.671810    17.435555    23.682383    -26.933035    -8.059841    0.010951    -9.915621    0.097675    
0.518470    0.842705    0.407688    -4.293882    2.405713    -91.130081    -2.101367    5.035159    -2.064241    -1.088394    -3.320127    -0.750266    3.351277    9.629494    0.867782    6.200325    -2.165013    1.697309    43.242527    -20.545959    6.314582    -4.935177    -18.857731    -29.109371    55.542561    -38.005268    -50.186565    28.053402    -9.013427    12.911173    -34.187790    -16.640760    -3.562334    2.337574    -9.175290    16.734442    -62.911873    -45.012573    42.345371    -17.125141    -20.225412    -14.414260    21.842300    -8.272360    -15.651869    5.413197    42.144592    -13.928627    -23.258204    -27.173655    -7.546495    0.038936    -3.566817    -0.709675    -22.286570    -3.382899    10.457521    -3.350800    39.799969    17.235683    23.651987    -25.738411    -8.431695    0.005143    -10.599045    0.043548    
